# xmcd
#
# Track frame offsets: 
#        150
#        19274
#        36445
#        55606
#        74502
#        88698
#        111449
#        125218
#        152051
#        164082
#        178281
#        194134
#        225168
#
# Disc length: 3453 seconds
#
# Revision: 0
# Processed by: cddbd v1.5.1PL0 Copyright (c) Steve Scherf et al.
# Submitted via: ExactAudioCopy v0.95a3
#
DISCID=c10d7b0d
DTITLE=Stan Webb - Webb
DYEAR=2001
DGENRE=Blues
TTITLE0=Koko road
TTITLE1=Strange situations
TTITLE2=Guiding light
TTITLE3=She loves you
TTITLE4=One and one is two
TTITLE5=Pass the time away
TTITLE6=The power of love
TTITLE7=The house that love lives in
TTITLE8=Took me for a ride
TTITLE9=The paper sellers dream
TTITLE10=I know
TTITLE11=Misty rivers
TTITLE12=The last time
EXTD=
EXTT0=
EXTT1=
EXTT2=
EXTT3=
EXTT4=
EXTT5=
EXTT6=
EXTT7=
EXTT8=
EXTT9=
EXTT10=
EXTT11=
EXTT12=
PLAYORDER=
